<mxfile host="app.diagrams.net" modified="2021-02-21T18:19:47.341Z" agent="5.0 (X11)" etag="6JrpahdvO5Td8dbxEvnu" version="14.3.1" type="github">
  <diagram name="Page-1" id="e7e014a7-5840-1c2e-5031-d8a46d1fe8dd">
    <mxGraphModel dx="1385" dy="670" grid="1" gridSize="10" guides="1" tooltips="1" connect="1" arrows="1" fold="1" page="1" pageScale="1" pageWidth="1169" pageHeight="826" background="#ffffff" math="0" shadow="0">
      <root>
        <mxCell id="0" />
        <mxCell id="1" parent="0" />
        <mxCell id="yKBbH9UPJJsHBe1DaO3o-41" value="" style="ellipse;html=1;shape=startState;fillColor=#000000;strokeColor=#ff0000;" vertex="1" parent="1">
          <mxGeometry x="20" y="310" width="30" height="30" as="geometry" />
        </mxCell>
        <mxCell id="yKBbH9UPJJsHBe1DaO3o-42" value="" style="edgeStyle=orthogonalEdgeStyle;html=1;verticalAlign=bottom;endArrow=open;endSize=8;strokeColor=#ff0000;" edge="1" source="yKBbH9UPJJsHBe1DaO3o-41" parent="1">
          <mxGeometry relative="1" as="geometry">
            <mxPoint x="120" y="325" as="targetPoint" />
          </mxGeometry>
        </mxCell>
        <mxCell id="yKBbH9UPJJsHBe1DaO3o-43" value="Выбрать товар" style="ellipse;whiteSpace=wrap;html=1;" vertex="1" parent="1">
          <mxGeometry x="120" y="290" width="140" height="70" as="geometry" />
        </mxCell>
        <mxCell id="yKBbH9UPJJsHBe1DaO3o-44" value="Выбрать товар" style="ellipse;whiteSpace=wrap;html=1;" vertex="1" parent="1">
          <mxGeometry x="350" y="290" width="140" height="70" as="geometry" />
        </mxCell>
        <mxCell id="yKBbH9UPJJsHBe1DaO3o-45" value="Выбрать товар" style="ellipse;whiteSpace=wrap;html=1;" vertex="1" parent="1">
          <mxGeometry x="580" y="290" width="140" height="70" as="geometry" />
        </mxCell>
        <mxCell id="yKBbH9UPJJsHBe1DaO3o-46" value="" style="endArrow=block;endFill=1;html=1;edgeStyle=orthogonalEdgeStyle;align=left;verticalAlign=top;" edge="1" parent="1">
          <mxGeometry x="-1" relative="1" as="geometry">
            <mxPoint x="260" y="324.58" as="sourcePoint" />
            <mxPoint x="350" y="324.58" as="targetPoint" />
          </mxGeometry>
        </mxCell>
        <mxCell id="yKBbH9UPJJsHBe1DaO3o-48" value="" style="endArrow=block;endFill=1;html=1;edgeStyle=orthogonalEdgeStyle;align=left;verticalAlign=top;" edge="1" parent="1">
          <mxGeometry x="-0.7778" y="-15" relative="1" as="geometry">
            <mxPoint x="490" y="324.58" as="sourcePoint" />
            <mxPoint x="580" y="324.58" as="targetPoint" />
            <mxPoint as="offset" />
          </mxGeometry>
        </mxCell>
        <mxCell id="yKBbH9UPJJsHBe1DaO3o-56" value="&lt;div&gt;Товары забронированы&lt;/div&gt;" style="ellipse;whiteSpace=wrap;html=1;" vertex="1" parent="1">
          <mxGeometry x="810" y="290" width="140" height="70" as="geometry" />
        </mxCell>
        <mxCell id="yKBbH9UPJJsHBe1DaO3o-58" value="" style="endArrow=block;endFill=1;html=1;edgeStyle=orthogonalEdgeStyle;align=left;verticalAlign=top;" edge="1" parent="1">
          <mxGeometry x="-1" relative="1" as="geometry">
            <mxPoint x="720" y="324.5799999999999" as="sourcePoint" />
            <mxPoint x="810" y="324.5799999999999" as="targetPoint" />
          </mxGeometry>
        </mxCell>
        <mxCell id="yKBbH9UPJJsHBe1DaO3o-60" value="Товары оплачены" style="ellipse;whiteSpace=wrap;html=1;" vertex="1" parent="1">
          <mxGeometry x="1040" y="290" width="140" height="70" as="geometry" />
        </mxCell>
        <mxCell id="yKBbH9UPJJsHBe1DaO3o-61" value="" style="endArrow=block;endFill=1;html=1;edgeStyle=orthogonalEdgeStyle;align=left;verticalAlign=top;" edge="1" parent="1">
          <mxGeometry x="-0.5556" y="-15" relative="1" as="geometry">
            <mxPoint x="950" y="324.5799999999999" as="sourcePoint" />
            <mxPoint x="1040" y="324.5799999999999" as="targetPoint" />
            <mxPoint as="offset" />
          </mxGeometry>
        </mxCell>
        <mxCell id="yKBbH9UPJJsHBe1DaO3o-63" value="Товары получены" style="ellipse;whiteSpace=wrap;html=1;" vertex="1" parent="1">
          <mxGeometry x="1270" y="290" width="140" height="70" as="geometry" />
        </mxCell>
        <mxCell id="yKBbH9UPJJsHBe1DaO3o-64" value="" style="endArrow=block;endFill=1;html=1;edgeStyle=orthogonalEdgeStyle;align=left;verticalAlign=top;" edge="1" parent="1">
          <mxGeometry x="-1" relative="1" as="geometry">
            <mxPoint x="1180" y="324.5799999999999" as="sourcePoint" />
            <mxPoint x="1270" y="324.5799999999999" as="targetPoint" />
          </mxGeometry>
        </mxCell>
        <mxCell id="yKBbH9UPJJsHBe1DaO3o-91" style="edgeStyle=orthogonalEdgeStyle;rounded=0;orthogonalLoop=1;jettySize=auto;html=1;entryX=1;entryY=0.5;entryDx=0;entryDy=0;" edge="1" parent="1" source="yKBbH9UPJJsHBe1DaO3o-69" target="yKBbH9UPJJsHBe1DaO3o-63">
          <mxGeometry relative="1" as="geometry" />
        </mxCell>
        <mxCell id="yKBbH9UPJJsHBe1DaO3o-69" value="" style="ellipse;html=1;shape=startState;fillColor=#000000;strokeColor=#ff0000;" vertex="1" parent="1">
          <mxGeometry x="1530" y="310" width="30" height="30" as="geometry" />
        </mxCell>
        <mxCell id="yKBbH9UPJJsHBe1DaO3o-71" value="Удаление товара клиентом" style="ellipse;whiteSpace=wrap;html=1;" vertex="1" parent="1">
          <mxGeometry x="120" y="470" width="140" height="70" as="geometry" />
        </mxCell>
        <mxCell id="yKBbH9UPJJsHBe1DaO3o-72" value="Удаление товара клиентом" style="ellipse;whiteSpace=wrap;html=1;" vertex="1" parent="1">
          <mxGeometry x="350" y="470" width="140" height="70" as="geometry" />
        </mxCell>
        <mxCell id="yKBbH9UPJJsHBe1DaO3o-73" value="Удаление товара клиентом" style="ellipse;whiteSpace=wrap;html=1;" vertex="1" parent="1">
          <mxGeometry x="580" y="470" width="140" height="70" as="geometry" />
        </mxCell>
        <mxCell id="yKBbH9UPJJsHBe1DaO3o-75" value="" style="endArrow=open;endFill=1;endSize=12;html=1;exitX=0.5;exitY=1;exitDx=0;exitDy=0;entryX=0.5;entryY=0;entryDx=0;entryDy=0;" edge="1" parent="1" source="yKBbH9UPJJsHBe1DaO3o-43" target="yKBbH9UPJJsHBe1DaO3o-71">
          <mxGeometry width="160" relative="1" as="geometry">
            <mxPoint x="180" y="370" as="sourcePoint" />
            <mxPoint x="189" y="460" as="targetPoint" />
          </mxGeometry>
        </mxCell>
        <mxCell id="yKBbH9UPJJsHBe1DaO3o-77" value="" style="endArrow=open;endFill=1;endSize=12;html=1;exitX=0.5;exitY=1;exitDx=0;exitDy=0;entryX=0.5;entryY=0;entryDx=0;entryDy=0;" edge="1" parent="1">
          <mxGeometry width="160" relative="1" as="geometry">
            <mxPoint x="419.58000000000004" y="358" as="sourcePoint" />
            <mxPoint x="419.58000000000004" y="468" as="targetPoint" />
          </mxGeometry>
        </mxCell>
        <mxCell id="yKBbH9UPJJsHBe1DaO3o-78" value="" style="endArrow=open;endFill=1;endSize=12;html=1;exitX=0.5;exitY=1;exitDx=0;exitDy=0;entryX=0.5;entryY=0;entryDx=0;entryDy=0;" edge="1" parent="1">
          <mxGeometry width="160" relative="1" as="geometry">
            <mxPoint x="649.5799999999999" y="360" as="sourcePoint" />
            <mxPoint x="649.5799999999999" y="470" as="targetPoint" />
          </mxGeometry>
        </mxCell>
        <mxCell id="yKBbH9UPJJsHBe1DaO3o-79" value="Оплата товаров" style="text;html=1;align=center;verticalAlign=middle;resizable=0;points=[];autosize=1;" vertex="1" parent="1">
          <mxGeometry x="710" y="290" width="100" height="20" as="geometry" />
        </mxCell>
        <mxCell id="yKBbH9UPJJsHBe1DaO3o-80" value="Старт таймера" style="text;html=1;align=center;verticalAlign=middle;resizable=0;points=[];autosize=1;" vertex="1" parent="1">
          <mxGeometry x="710" y="340" width="100" height="20" as="geometry" />
        </mxCell>
        <mxCell id="yKBbH9UPJJsHBe1DaO3o-81" value="&lt;div&gt;Отменено по таймеру&lt;/div&gt;" style="ellipse;whiteSpace=wrap;html=1;" vertex="1" parent="1">
          <mxGeometry x="760" y="480" width="120" height="80" as="geometry" />
        </mxCell>
        <mxCell id="yKBbH9UPJJsHBe1DaO3o-83" value="Отменено клиентом" style="ellipse;whiteSpace=wrap;html=1;" vertex="1" parent="1">
          <mxGeometry x="900" y="500" width="120" height="80" as="geometry" />
        </mxCell>
        <mxCell id="yKBbH9UPJJsHBe1DaO3o-84" value="" style="endArrow=open;endFill=1;endSize=12;html=1;exitX=0.5;exitY=1;exitDx=0;exitDy=0;entryX=0.5;entryY=0;entryDx=0;entryDy=0;" edge="1" parent="1" source="yKBbH9UPJJsHBe1DaO3o-56" target="yKBbH9UPJJsHBe1DaO3o-81">
          <mxGeometry width="160" relative="1" as="geometry">
            <mxPoint x="869.9999999999997" y="360" as="sourcePoint" />
            <mxPoint x="869.9999999999997" y="470" as="targetPoint" />
          </mxGeometry>
        </mxCell>
        <mxCell id="yKBbH9UPJJsHBe1DaO3o-85" value="" style="endArrow=open;endFill=1;endSize=12;html=1;exitX=0.5;exitY=1;exitDx=0;exitDy=0;entryX=0.5;entryY=0;entryDx=0;entryDy=0;" edge="1" parent="1" target="yKBbH9UPJJsHBe1DaO3o-83">
          <mxGeometry width="160" relative="1" as="geometry">
            <mxPoint x="879.9999999999995" y="360" as="sourcePoint" />
            <mxPoint x="830" y="480" as="targetPoint" />
          </mxGeometry>
        </mxCell>
        <mxCell id="yKBbH9UPJJsHBe1DaO3o-86" value="" style="endArrow=open;endFill=1;endSize=12;html=1;exitX=0.5;exitY=1;exitDx=0;exitDy=0;" edge="1" parent="1">
          <mxGeometry width="160" relative="1" as="geometry">
            <mxPoint x="1090" y="360" as="sourcePoint" />
            <mxPoint x="960" y="500" as="targetPoint" />
          </mxGeometry>
        </mxCell>
        <mxCell id="yKBbH9UPJJsHBe1DaO3o-87" value="&lt;div&gt;Отменено менеджером&lt;/div&gt;&lt;div&gt; (звонок в компанию)/Возврат&lt;/div&gt;&lt;div&gt;&lt;br&gt;&lt;/div&gt;" style="text;html=1;align=center;verticalAlign=middle;resizable=0;points=[];autosize=1;rotation=-50;" vertex="1" parent="1">
          <mxGeometry x="930" y="400" width="180" height="50" as="geometry" />
        </mxCell>
        <mxCell id="yKBbH9UPJJsHBe1DaO3o-89" value="&lt;div&gt;Отменено менеджером&lt;/div&gt;&lt;div&gt; (звонок в компанию)/Возврат&lt;/div&gt;&lt;div&gt;&lt;br&gt;&lt;/div&gt;" style="text;html=1;align=center;verticalAlign=middle;resizable=0;points=[];autosize=1;rotation=-25;" vertex="1" parent="1">
          <mxGeometry x="1050" y="388" width="180" height="50" as="geometry" />
        </mxCell>
        <mxCell id="yKBbH9UPJJsHBe1DaO3o-90" value="" style="endArrow=open;endFill=1;endSize=12;html=1;exitX=0.5;exitY=1;exitDx=0;exitDy=0;entryX=0.002;entryY=0.698;entryDx=0;entryDy=0;entryPerimeter=0;" edge="1" parent="1" target="yKBbH9UPJJsHBe1DaO3o-87">
          <mxGeometry width="160" relative="1" as="geometry">
            <mxPoint x="1320" y="350" as="sourcePoint" />
            <mxPoint x="1190" y="490" as="targetPoint" />
          </mxGeometry>
        </mxCell>
      </root>
    </mxGraphModel>
  </diagram>
</mxfile>
